<svg xmlns="http://www.w3.org/2000/svg" width="33.928" height="40" viewBox="0 0 33.928 40"><path d="M26.128,1.7,15.26,39.318a.952.952,0,0,1-.447.565l0,0a.806.806,0,0,1-.42.117.831.831,0,0,1-.268-.045l0,0-1.807-.5a.952.952,0,0,1-.565-.447l0-.005a.872.872,0,0,1-.072-.72l0,.007L22.546.684a.952.952,0,0,1,.447-.565l.005,0A.806.806,0,0,1,23.417,0a.831.831,0,0,1,.268.045l-.005,0,1.807.5a.952.952,0,0,1,.565.447l0,.005a.872.872,0,0,1,.072.72l0-.007ZM45.269,20.671,31.691,34.247a.915.915,0,0,1-1.34,0L28.894,32.79a.915.915,0,0,1,0-1.34L40.345,20,28.894,8.548a.915.915,0,0,1,0-1.34l1.457-1.457a.915.915,0,0,1,1.34,0L45.269,19.329a.915.915,0,0,1,0,1.34Z" transform="translate(-11.633 -0.001)"/></svg>